<?xml version="1.0" standalone="no"?><!DOCTYPE svg PUBLIC "-//W3C//DTD SVG 1.1//EN" "http://www.w3.org/Graphics/SVG/1.1/DTD/svg11.dtd"><svg class="icon" width="200px" height="200.00px" viewBox="0 0 1024 1024" version="1.1" xmlns="http://www.w3.org/2000/svg"><path fill="#8a8a8a" d="M512 960c247.424 0 448-200.576 448-448S759.424 64 512 64 64 264.576 64 512 264.576 960 512 960z m0 64C229.248 1024 0 794.752 0 512S229.248 0 512 0s512 229.248 512 512-229.248 512-512 512z"  /><path fill="#8a8a8a" d="M448 422.656v217.088l173.653333-108.544-173.653333-108.544z m14.336 283.562667A51.2 51.2 0 0 1 384 662.869333V399.530667a51.2 51.2 0 0 1 78.336-43.434667l210.56 131.669333a51.2 51.2 0 0 1 0 86.784l-210.56 131.626667z"  /></svg>